<?xml version="1.0"?>
<svg xmlns="http://www.w3.org/2000/svg" xmlns:xlink="http://www.w3.org/1999/xlink" xmlns:svgjs="http://svgjs.com/svgjs" version="1.1" width="512" height="512" x="0" y="0" viewBox="0 0 64 64" style="enable-background:new 0 0 512 512" xml:space="preserve" class=""><g><rect xmlns="http://www.w3.org/2000/svg" fill="#ffffff" height="44" rx="1" width="53" x="4" y="10" data-original="#4e4b51" style=""/><path xmlns="http://www.w3.org/2000/svg" d="m56 54.5h-51a1.5 1.5 0 0 1 -1.5-1.5v-42a1.5 1.5 0 0 1 1.5-1.5h51a1.5 1.5 0 0 1 1.5 1.5v42a1.5 1.5 0 0 1 -1.5 1.5zm-51-44a.5.5 0 0 0 -.5.5v42a.5.5 0 0 0 .5.5h51a.5.5 0 0 0 .5-.5v-42a.5.5 0 0 0 -.5-.5z" fill="#212a41" data-original="#212a41" style="" class=""/><rect xmlns="http://www.w3.org/2000/svg" fill="#ffffff" height="44" rx="1" width="53" x="7" y="10" data-original="#e0e0e0" style="" class=""/><rect xmlns="http://www.w3.org/2000/svg" fill="#ffffff" height="44" rx="1" width="53" x="7" y="10" data-original="#6c696f" style="" class=""/><path xmlns="http://www.w3.org/2000/svg" d="m59 54.5h-51a1.5 1.5 0 0 1 -1.5-1.5v-42a1.5 1.5 0 0 1 1.5-1.5h51a1.5 1.5 0 0 1 1.5 1.5v42a1.5 1.5 0 0 1 -1.5 1.5zm-51-44a.5.5 0 0 0 -.5.5v42a.5.5 0 0 0 .5.5h51a.5.5 0 0 0 .5-.5v-42a.5.5 0 0 0 -.5-.5z" fill="#212a41" data-original="#212a41" style="" class=""/><path xmlns="http://www.w3.org/2000/svg" d="m9 52.5a.5.5 0 0 1 -.5-.5v-40a.5.5 0 0 1 1 0v40a.5.5 0 0 1 -.5.5z" fill="#000000" data-original="#8a878d" style="" class=""/><path xmlns="http://www.w3.org/2000/svg" d="m13 16h16v4h-16z" fill="#ffffff" data-original="#f9ac2f" style="" class=""/><path xmlns="http://www.w3.org/2000/svg" d="m29 20.5h-16a.5.5 0 0 1 -.5-.5v-4a.5.5 0 0 1 .5-.5h16a.5.5 0 0 1 .5.5v4a.5.5 0 0 1 -.5.5zm-15.5-1h15v-3h-15z" fill="#212a41" data-original="#212a41" style="" class=""/><path xmlns="http://www.w3.org/2000/svg" d="m46 26 2-6-2-6h-2l1 6-1 6z" fill="#b7c0d7" data-original="#b7c0d7" style="" class=""/><path xmlns="http://www.w3.org/2000/svg" d="m46 26.5h-2a.5.5 0 0 1 -.493-.582l.986-5.918-.986-5.918a.5.5 0 0 1 .493-.582h2a.5.5 0 0 1 .475.342l2 6a.5.5 0 0 1 0 .316l-2 6a.5.5 0 0 1 -.475.342zm-1.41-1h1.05l1.833-5.5-1.833-5.5h-1.05l.9 5.418a.5.5 0 0 1 0 .164z" fill="#212a41" data-original="#212a41" style="" class=""/><path xmlns="http://www.w3.org/2000/svg" d="m37.621 19.5v-3h1.586a1 1 0 0 1 .707.293l1.707 1.707h10.879a1.5 1.5 0 0 1 1.5 1.5 1.5 1.5 0 0 1 -1.5 1.5h-12.879a2 2 0 0 1 -2-2z" fill="#b7c0d7" data-original="#b7c0d7" style="" class=""/><path xmlns="http://www.w3.org/2000/svg" d="m52.5 22h-12.879a2.5 2.5 0 0 1 -2.5-2.5v-3a.5.5 0 0 1 .5-.5h1.586a1.513 1.513 0 0 1 1.061.439l1.56 1.561h10.672a2 2 0 0 1 0 4zm-14.379-5v2.5a1.5 1.5 0 0 0 1.5 1.5h12.879a1 1 0 0 0 0-2h-10.879a.5.5 0 0 1 -.353-.146l-1.707-1.708a.5.5 0 0 0 -.354-.146z" fill="#212a41" data-original="#212a41" style="" class=""/><path xmlns="http://www.w3.org/2000/svg" d="m58 52.5a.5.5 0 0 1 -.5-.5v-40a.5.5 0 0 1 1 0v40a.5.5 0 0 1 -.5.5z" fill="#ffffff" data-original="#4e4b51" style=""/><path xmlns="http://www.w3.org/2000/svg" d="m13 30h41v20h-41z" fill="#b7c0d7" data-original="#b7c0d7" style="" class=""/><g xmlns="http://www.w3.org/2000/svg" fill="#212a41"><path d="m54 50.5h-41a.5.5 0 0 1 -.5-.5v-20a.5.5 0 0 1 .5-.5h41a.5.5 0 0 1 .5.5v20a.5.5 0 0 1 -.5.5zm-40.5-1h40v-19h-40z" fill="#212a41" data-original="#212a41" style="" class=""/><path d="m23 44.5a.5.5 0 0 1 -.4-.2l-6-8a.5.5 0 1 1 .8-.6l6 8a.5.5 0 0 1 -.4.8z" fill="#212a41" data-original="#212a41" style="" class=""/><path d="m17 44.5a.5.5 0 0 1 -.4-.8l6-8a.5.5 0 0 1 .8.6l-6 8a.5.5 0 0 1 -.4.2z" fill="#212a41" data-original="#212a41" style="" class=""/><path d="m31 44.5a.5.5 0 0 1 -.4-.2l-6-8a.5.5 0 1 1 .8-.6l6 8a.5.5 0 0 1 -.4.8z" fill="#212a41" data-original="#212a41" style="" class=""/><path d="m25 44.5a.5.5 0 0 1 -.4-.8l6-8a.5.5 0 0 1 .8.6l-6 8a.5.5 0 0 1 -.4.2z" fill="#212a41" data-original="#212a41" style="" class=""/><path d="m37 44.5h-3a.5.5 0 0 1 0-1h3a.5.5 0 0 0 .5-.5v-3a.5.5 0 0 1 -.5.5h-2a1.5 1.5 0 0 1 -1.5-1.5v-2a1.5 1.5 0 0 1 1.5-1.5h2a1.5 1.5 0 0 1 1.5 1.5v6a1.5 1.5 0 0 1 -1.5 1.5zm-2-8a.5.5 0 0 0 -.5.5v2a.5.5 0 0 0 .5.5h2a.5.5 0 0 1 .5.5v-3a.5.5 0 0 0 -.5-.5z" fill="#212a41" data-original="#212a41" style="" class=""/><path d="m43 44.5h-3a.5.5 0 0 1 0-1h3a.5.5 0 0 0 .5-.5v-3a.5.5 0 0 1 -.5.5h-2a1.5 1.5 0 0 1 -1.5-1.5v-2a1.5 1.5 0 0 1 1.5-1.5h2a1.5 1.5 0 0 1 1.5 1.5v6a1.5 1.5 0 0 1 -1.5 1.5zm-2-8a.5.5 0 0 0 -.5.5v2a.5.5 0 0 0 .5.5h2a.5.5 0 0 1 .5.5v-3a.5.5 0 0 0 -.5-.5z" fill="#212a41" data-original="#212a41" style="" class=""/><path d="m49 44.5h-3a.5.5 0 0 1 0-1h3a.5.5 0 0 0 .5-.5v-3a.5.5 0 0 1 -.5.5h-2a1.5 1.5 0 0 1 -1.5-1.5v-2a1.5 1.5 0 0 1 1.5-1.5h2a1.5 1.5 0 0 1 1.5 1.5v6a1.5 1.5 0 0 1 -1.5 1.5zm-2-8a.5.5 0 0 0 -.5.5v2a.5.5 0 0 0 .5.5h2a.5.5 0 0 1 .5.5v-3a.5.5 0 0 0 -.5-.5z" fill="#212a41" data-original="#212a41" style="" class=""/><path d="m25 24.5h-12a.5.5 0 0 1 0-1h12a.5.5 0 0 1 0 1z" fill="#212a41" data-original="#212a41" style="" class=""/></g><path xmlns="http://www.w3.org/2000/svg" d="m52 48.5a.5.5 0 0 1 -.5-.5v-16a.5.5 0 0 1 1 0v16a.5.5 0 0 1 -.5.5z" fill="#99a2b9" data-original="#99a2b9" style="" class=""/><path xmlns="http://www.w3.org/2000/svg" d="m15 48.5a.5.5 0 0 1 -.5-.5v-16a.5.5 0 0 1 1 0v16a.5.5 0 0 1 -.5.5z" fill="#d5def5" data-original="#d5def5" style="" class=""/></g></svg>
